{
	"asset":{
		"generator":"Khronos glTF Blender I/O v4.3.47",
		"version":"2.0"
	},
	"scene":0,
	"scenes":[
		{
			"name":"Scene",
			"nodes":[
				0
			]
		}
	],
	"nodes":[
		{
			"mesh":0,
			"name":"Dart_geo_01",
			"rotation":[
				0.7071068286895752,
				0,
				0,
				0.7071068286895752
			],
			"scale":[
				0.009999999776482582,
				0.009999999776482582,
				0.009999999776482582
			]
		}
	],
	"materials":[
		{
			"doubleSided":true,
			"name":"dart_tail_edge_mat",
			"pbrMetallicRoughness":{
				"baseColorFactor":[
					0.8000000715255737,
					0.23430725932121277,
					0.021939558908343315,
					1
				],
				"metallicFactor":0.5,
				"roughnessFactor":0.25
			}
		},
		{
			"doubleSided":true,
			"name":"dart_tail_mat",
			"pbrMetallicRoughness":{
				"metallicFactor":0.5,
				"roughnessFactor":0.25
			}
		},
		{
			"doubleSided":true,
			"name":"dart_plastic_black_mat",
			"pbrMetallicRoughness":{
				"baseColorFactor":[
					0.0012873343657702208,
					0.0012873343657702208,
					0.0012873343657702208,
					1
				],
				"metallicFactor":0,
				"roughnessFactor":0.30000001192092896
			}
		},
		{
			"doubleSided":true,
			"name":"dart_gold_mat",
			"pbrMetallicRoughness":{
				"baseColorFactor":[
					0.6738464832305908,
					0.30314216017723083,
					0.04022406041622162,
					1
				],
				"metallicFactor":0.8999999761581421,
				"roughnessFactor":0.20000000298023224
			}
		},
		{
			"doubleSided":true,
			"name":"dart_metal_silver_mat",
			"pbrMetallicRoughness":{
				"baseColorFactor":[
					0.800000011920929,
					0.800000011920929,
					0.800000011920929,
					1
				],
				"metallicFactor":0,
				"roughnessFactor":0.20000000298023224
			}
		},
		{
			"alphaMode":"BLEND",
			"doubleSided":true,
			"emissiveFactor":[
				0.05000000074505806,
				0.05000000074505806,
				0.05000000074505806
			],
			"name":"dart_plastic_alpha_mat",
			"pbrMetallicRoughness":{
				"baseColorFactor":[
					0.8000000715255737,
					0.8000000715255737,
					0.8000000715255737,
					0.5999999642372131
				],
				"metallicFactor":0,
				"roughnessFactor":0.20000000298023224
			}
		}
	],
	"meshes":[
		{
			"name":"Mesh.003",
			"primitives":[
				{
					"attributes":{
						"POSITION":0,
						"NORMAL":1,
						"TEXCOORD_0":2
					},
					"indices":3,
					"material":0
				},
				{
					"attributes":{
						"POSITION":4,
						"NORMAL":5,
						"TEXCOORD_0":6
					},
					"indices":7,
					"material":1
				},
				{
					"attributes":{
						"POSITION":8,
						"NORMAL":9,
						"TEXCOORD_0":10
					},
					"indices":11,
					"material":2
				},
				{
					"attributes":{
						"POSITION":12,
						"NORMAL":13,
						"TEXCOORD_0":14
					},
					"indices":15,
					"material":3
				},
				{
					"attributes":{
						"POSITION":16,
						"NORMAL":17,
						"TEXCOORD_0":18
					},
					"indices":19,
					"material":4
				},
				{
					"attributes":{
						"POSITION":20,
						"NORMAL":21,
						"TEXCOORD_0":22
					},
					"indices":23,
					"material":5
				}
			]
		}
	],
	"accessors":[
		{
			"bufferView":0,
			"componentType":5126,
			"count":8215,
			"max":[
				6.203609943389893,
				347.80535888671875,
				0.06182578206062317
			],
			"min":[
				-6.195601940155029,
				325.9438171386719,
				-12.506757736206055
			],
			"type":"VEC3"
		},
		{
			"bufferView":1,
			"componentType":5126,
			"count":8215,
			"type":"VEC3"
		},
		{
			"bufferView":2,
			"componentType":5126,
			"count":8215,
			"type":"VEC2"
		},
		{
			"bufferView":3,
			"componentType":5123,
			"count":14268,
			"type":"SCALAR"
		},
		{
			"bufferView":4,
			"componentType":5126,
			"count":386,
			"max":[
				6.193864822387695,
				347.7694091796875,
				0.05199924111366272
			],
			"min":[
				-6.185856342315674,
				325.9452209472656,
				-12.49693489074707
			],
			"type":"VEC3"
		},
		{
			"bufferView":5,
			"componentType":5126,
			"count":386,
			"type":"VEC3"
		},
		{
			"bufferView":6,
			"componentType":5126,
			"count":386,
			"type":"VEC2"
		},
		{
			"bufferView":7,
			"componentType":5123,
			"count":1098,
			"type":"SCALAR"
		},
		{
			"bufferView":8,
			"componentType":5126,
			"count":51752,
			"max":[
				1.7746946811676025,
				347.8193054199219,
				-1.1786785125732422
			],
			"min":[
				-1.7674431800842285,
				299.9645080566406,
				-6.875898361206055
			],
			"type":"VEC3"
		},
		{
			"bufferView":9,
			"componentType":5126,
			"count":51752,
			"type":"VEC3"
		},
		{
			"bufferView":10,
			"componentType":5126,
			"count":51752,
			"type":"VEC2"
		},
		{
			"bufferView":11,
			"componentType":5123,
			"count":205710,
			"type":"SCALAR"
		},
		{
			"bufferView":12,
			"componentType":5126,
			"count":33045,
			"max":[
				1.6660938262939453,
				326.0752868652344,
				-0.5537440776824951
			],
			"min":[
				-1.6580854654312134,
				280.8653259277344,
				-6.5634660720825195
			],
			"type":"VEC3"
		},
		{
			"bufferView":13,
			"componentType":5126,
			"count":33045,
			"type":"VEC3"
		},
		{
			"bufferView":14,
			"componentType":5126,
			"count":33045,
			"type":"VEC2"
		},
		{
			"bufferView":15,
			"componentType":5123,
			"count":66162,
			"type":"SCALAR"
		},
		{
			"bufferView":16,
			"componentType":5126,
			"count":33418,
			"max":[
				1.7815240621566772,
				325.90875244140625,
				-0.35253816843032837
			],
			"min":[
				-1.7735159397125244,
				271.3870849609375,
				-6.446935653686523
			],
			"type":"VEC3"
		},
		{
			"bufferView":17,
			"componentType":5126,
			"count":33418,
			"type":"VEC3"
		},
		{
			"bufferView":18,
			"componentType":5126,
			"count":33418,
			"type":"VEC2"
		},
		{
			"bufferView":19,
			"componentType":5123,
			"count":151914,
			"type":"SCALAR"
		},
		{
			"bufferView":20,
			"componentType":5126,
			"count":5572,
			"max":[
				1.5510733127593994,
				332.5221862792969,
				-2.3315300941467285
			],
			"min":[
				-1.5430638790130615,
				311.53125,
				-6.296234607696533
			],
			"type":"VEC3"
		},
		{
			"bufferView":21,
			"componentType":5126,
			"count":5572,
			"type":"VEC3"
		},
		{
			"bufferView":22,
			"componentType":5126,
			"count":5572,
			"type":"VEC2"
		},
		{
			"bufferView":23,
			"componentType":5123,
			"count":9414,
			"type":"SCALAR"
		}
	],
	"bufferViews":[
		{
			"buffer":0,
			"byteLength":98580,
			"byteOffset":0,
			"target":34962
		},
		{
			"buffer":0,
			"byteLength":98580,
			"byteOffset":98580,
			"target":34962
		},
		{
			"buffer":0,
			"byteLength":65720,
			"byteOffset":197160,
			"target":34962
		},
		{
			"buffer":0,
			"byteLength":28536,
			"byteOffset":262880,
			"target":34963
		},
		{
			"buffer":0,
			"byteLength":4632,
			"byteOffset":291416,
			"target":34962
		},
		{
			"buffer":0,
			"byteLength":4632,
			"byteOffset":296048,
			"target":34962
		},
		{
			"buffer":0,
			"byteLength":3088,
			"byteOffset":300680,
			"target":34962
		},
		{
			"buffer":0,
			"byteLength":2196,
			"byteOffset":303768,
			"target":34963
		},
		{
			"buffer":0,
			"byteLength":621024,
			"byteOffset":305964,
			"target":34962
		},
		{
			"buffer":0,
			"byteLength":621024,
			"byteOffset":926988,
			"target":34962
		},
		{
			"buffer":0,
			"byteLength":414016,
			"byteOffset":1548012,
			"target":34962
		},
		{
			"buffer":0,
			"byteLength":411420,
			"byteOffset":1962028,
			"target":34963
		},
		{
			"buffer":0,
			"byteLength":396540,
			"byteOffset":2373448,
			"target":34962
		},
		{
			"buffer":0,
			"byteLength":396540,
			"byteOffset":2769988,
			"target":34962
		},
		{
			"buffer":0,
			"byteLength":264360,
			"byteOffset":3166528,
			"target":34962
		},
		{
			"buffer":0,
			"byteLength":132324,
			"byteOffset":3430888,
			"target":34963
		},
		{
			"buffer":0,
			"byteLength":401016,
			"byteOffset":3563212,
			"target":34962
		},
		{
			"buffer":0,
			"byteLength":401016,
			"byteOffset":3964228,
			"target":34962
		},
		{
			"buffer":0,
			"byteLength":267344,
			"byteOffset":4365244,
			"target":34962
		},
		{
			"buffer":0,
			"byteLength":303828,
			"byteOffset":4632588,
			"target":34963
		},
		{
			"buffer":0,
			"byteLength":66864,
			"byteOffset":4936416,
			"target":34962
		},
		{
			"buffer":0,
			"byteLength":66864,
			"byteOffset":5003280,
			"target":34962
		},
		{
			"buffer":0,
			"byteLength":44576,
			"byteOffset":5070144,
			"target":34962
		},
		{
			"buffer":0,
			"byteLength":18828,
			"byteOffset":5114720,
			"target":34963
		}
	],
	"buffers":[
		{
			"byteLength":5133548,
			"uri":"Darts_glTF.bin"
		}
	]
}
