{
	"asset":{
		"generator":"Khronos glTF Blender I/O v4.3.47",
		"version":"2.0"
	},
	"scene":0,
	"scenes":[
		{
			"name":"Scene",
			"nodes":[
				0
			]
		}
	],
	"nodes":[
		{
			"mesh":0,
			"name":"Table_Darts_01",
			"rotation":[
				0.7071068286895752,
				0,
				0,
				0.7071068286895752
			],
			"scale":[
				1,
				0.04303859546780586,
				1
			],
			"translation":[
				0,
				0,
				-0.04314450919628143
			]
		}
	],
	"materials":[
		{
			"doubleSided":true,
			"name":"Dart 2",
			"pbrMetallicRoughness":{
				"baseColorFactor":[
					0,
					0,
					0,
					1
				],
				"metallicFactor":0,
				"roughnessFactor":0.4000000059604645
			}
		},
		{
			"doubleSided":true,
			"name":"Dart",
			"pbrMetallicRoughness":{
				"metallicFactor":0,
				"roughnessFactor":0.4000000059604645
			}
		},
		{
			"doubleSided":true,
			"name":"Tip Metal",
			"pbrMetallicRoughness":{
				"baseColorFactor":[
					0.3423837125301361,
					0.3423837125301361,
					0.3423837125301361,
					1
				],
				"metallicFactor":0,
				"roughnessFactor":0.5
			}
		}
	],
	"meshes":[
		{
			"name":"Mesh.002",
			"primitives":[
				{
					"attributes":{
						"POSITION":0,
						"NORMAL":1,
						"TEXCOORD_0":2
					},
					"indices":3,
					"material":0
				},
				{
					"attributes":{
						"POSITION":4,
						"NORMAL":5,
						"TEXCOORD_0":6
					},
					"indices":7,
					"material":1
				},
				{
					"attributes":{
						"POSITION":8,
						"NORMAL":9,
						"TEXCOORD_0":10
					},
					"indices":11,
					"material":2
				}
			]
		}
	],
	"accessors":[
		{
			"bufferView":0,
			"componentType":5126,
			"count":298,
			"max":[
				0.9992862939834595,
				-68.70487213134766,
				1.1920928955078125e-07
			],
			"min":[
				-1.0007137060165405,
				-70.70487213134766,
				-1.9999998807907104
			],
			"type":"VEC3"
		},
		{
			"bufferView":1,
			"componentType":5126,
			"count":298,
			"type":"VEC3"
		},
		{
			"bufferView":2,
			"componentType":5126,
			"count":298,
			"type":"VEC2"
		},
		{
			"bufferView":3,
			"componentType":5123,
			"count":696,
			"type":"SCALAR"
		},
		{
			"bufferView":4,
			"componentType":5126,
			"count":34,
			"max":[
				0.9992862939834595,
				-68.70487213134766,
				1.1920928955078125e-07
			],
			"min":[
				-1.0007137060165405,
				-68.70487213134766,
				-1.9999998807907104
			],
			"type":"VEC3"
		},
		{
			"bufferView":5,
			"componentType":5126,
			"count":34,
			"type":"VEC3"
		},
		{
			"bufferView":6,
			"componentType":5126,
			"count":34,
			"type":"VEC2"
		},
		{
			"bufferView":7,
			"componentType":5123,
			"count":96,
			"type":"SCALAR"
		},
		{
			"bufferView":8,
			"componentType":5126,
			"count":32,
			"max":[
				0.02015293762087822,
				-69.37153625488281,
				-1.997937798500061
			],
			"min":[
				-0.021650414913892746,
				-70.0382080078125,
				-2.0077433586120605
			],
			"type":"VEC3"
		},
		{
			"bufferView":9,
			"componentType":5126,
			"count":32,
			"type":"VEC3"
		},
		{
			"bufferView":10,
			"componentType":5126,
			"count":32,
			"type":"VEC2"
		},
		{
			"bufferView":11,
			"componentType":5123,
			"count":48,
			"type":"SCALAR"
		}
	],
	"bufferViews":[
		{
			"buffer":0,
			"byteLength":3576,
			"byteOffset":0,
			"target":34962
		},
		{
			"buffer":0,
			"byteLength":3576,
			"byteOffset":3576,
			"target":34962
		},
		{
			"buffer":0,
			"byteLength":2384,
			"byteOffset":7152,
			"target":34962
		},
		{
			"buffer":0,
			"byteLength":1392,
			"byteOffset":9536,
			"target":34963
		},
		{
			"buffer":0,
			"byteLength":408,
			"byteOffset":10928,
			"target":34962
		},
		{
			"buffer":0,
			"byteLength":408,
			"byteOffset":11336,
			"target":34962
		},
		{
			"buffer":0,
			"byteLength":272,
			"byteOffset":11744,
			"target":34962
		},
		{
			"buffer":0,
			"byteLength":192,
			"byteOffset":12016,
			"target":34963
		},
		{
			"buffer":0,
			"byteLength":384,
			"byteOffset":12208,
			"target":34962
		},
		{
			"buffer":0,
			"byteLength":384,
			"byteOffset":12592,
			"target":34962
		},
		{
			"buffer":0,
			"byteLength":256,
			"byteOffset":12976,
			"target":34962
		},
		{
			"buffer":0,
			"byteLength":96,
			"byteOffset":13232,
			"target":34963
		}
	],
	"buffers":[
		{
			"byteLength":13328,
			"uri":"Table_Darts_glTF.bin"
		}
	]
}
